# xmcd
#
# Track frame offsets:
#	150
#	19282
#	37147
#	55212
#	71490
#
# Disc length: 1206 seconds
#
# Revision: 0
# Processed by: cddbd v1.4b42PL1 Copyright (c) Steve Scherf et al.
# Submitted via: dBpowerAMP V4.0
#
DISCID=4304b405
DTITLE=Deana Carter - Songs From The Heart
DYEAR=2001
DGENRE=Country
TTITLE0=Inside Your Love
TTITLE1=How Can You Mend A Broken Heart
TTITLE2=Heart Of A Woman
TTITLE3=Love Don't Grow On Trees
TTITLE4=Bring A Little Sun In
EXTD=
EXTT0=
EXTT1=
EXTT2=
EXTT3=
EXTT4=
PLAYORDER=
